<svg width="162" height="41" fill="none" xmlns="http://www.w3.org/2000/svg"><g clip-path="url(#a)"><path fill-rule="evenodd" clip-rule="evenodd" d="m118.322 9.456-3.178-3.178 4.215-1.557-.04-.161-4.496.422L116.17.776l-.153-.071-2.428 3.704-2.534-3.688-.152.072 1.468 4.197-4.508-.393-.035.162 4.259 1.53-3.088 3.197.108.13 3.843-2.29.659 4.38h.168l.533-4.385 3.908 2.265.104-.13Zm29.497 11.067c6.232-3.015 5.823-8.963 1.5-8.963-3.177 0-6.136 3.547-7.076 6.821h-.505l.559-13.97-.136.083v-.082l-6.3 2.25a8.907 8.907 0 0 1 1.363 5.171v16.248a9.304 9.304 0 0 1-1.363 5.184h7.622a9.304 9.304 0 0 1-1.363-5.184v-7.394c1.05-3.67 2.986-5.211 4.936-5.211 2.536 0 2.808 4.679-3.873 5.989l3.599 7.885a9.551 9.551 0 0 1 1.037 3.902h7.295a34.088 34.088 0 0 1-3.354-5.198l-3.941-7.53Zm-70.67-3.015a1507.5 1507.5 0 0 1-1.686 5.617l-.933 3.1c-.818-2.728-2.331-7.762-2.972-9.876a4.97 4.97 0 0 1 .45-4.57h-12.79v-4.87H59c-1.554 2.564-4.772 4.092-7.281 4.87v.982h2.495v15.661c0 2.087 1.132 5.102 4.527 5.102a5.316 5.316 0 0 0 5.454-3.929c-.797.41-1.68.626-2.577.628a2.193 2.193 0 0 1-2.414-2.456V12.761h3c2.973 0 3.477 1.53 4.16 3.605l.001.002.134.404c.764 2.278 3.314 9.713 5.754 16.82a2.618 2.618 0 0 1-2.727 1.87 6.202 6.202 0 0 1-3.913-1.365l-1.268 5.566a8.57 8.57 0 0 0 2.931.532c2.455 0 4.5-1.46 5.932-5.989 1.054-3.365 2.138-6.99 3.057-10.062v-.004l.001-.002.001-.004c.816-2.727 1.5-5.016 1.917-6.298.656-2.087 1.5-4.11 2.523-6.044h-3.845c1.186 1.078 1.104 3.029.286 5.716Zm11.97-4.747v15.006a2.197 2.197 0 0 0 2.414 2.456 5.694 5.694 0 0 0 2.577-.627 5.32 5.32 0 0 1-5.454 3.929c-3.396 0-4.527-3.015-4.527-5.103V12.761h-2.51v-.982c2.51-.778 5.714-2.306 7.282-4.87h.218v4.87h4.677l-.3.982h-4.377Zm37.183-.15c-4.963 0-3.982 15.852 3.218 15.852a5.926 5.926 0 0 0 4.936-3.055c-.368 5.17-2.781 8.09-6.695 8.09-4.704 0-8.439-3.916-8.439-11.023 0-6.549 3.203-10.914 8.834-10.914a11.37 11.37 0 0 1 5.823 1.95v8.022h-.191c-1.841-3.465-4.977-8.922-7.486-8.922Zm-16.088 1.419 6.314-2.251-.056 16.302a9.305 9.305 0 0 0 1.364 5.184h-7.622a9.313 9.313 0 0 0 1.364-5.184v-8.867a9.313 9.313 0 0 0-1.364-5.184Zm-67.071 3.015h-.368l.286-5.266-6.313 2.25a9.309 9.309 0 0 1 1.363 5.185v8.867a9.309 9.309 0 0 1-1.363 5.184h7.622a9.309 9.309 0 0 1-1.364-5.184V19.46c0-3.437 4.568-3.246 6.6-.832h.136v-6.916c-3.368-.832-5.958 2.728-6.6 5.334Zm58.194 0h.368c.641-2.606 3.245-6.166 6.626-5.334v6.916h-.149c-2.019-2.414-6.6-2.605-6.6.833v8.621a9.313 9.313 0 0 0 1.363 5.185h-7.621a9.307 9.307 0 0 0 1.363-5.184v-8.868a9.306 9.306 0 0 0-1.363-5.184l6.299-2.251-.286 5.266Zm-74.393-5.498c3.75 0 6.477 1.637 6.477 5.88v10.995a9.035 9.035 0 0 0 1.363 4.816h-6.326v-3.615a5.771 5.771 0 0 1-5.195 3.983 5.042 5.042 0 0 1-5.103-3.166 5.05 5.05 0 0 1-.351-2.1c0-3.698 2.858-5.332 5.605-6.903 2.542-1.454 4.99-2.853 4.99-5.784v-2.005c0-.655-.328-1.16-1.037-1.16-1.068 0-2.928 1.828-6.685 5.52-.512.504-1.06 1.042-1.646 1.615h-.15l2.29-7.244a22.587 22.587 0 0 1 5.768-.832Zm-3.763 15.948c0 1.773.79 2.96 2.332 2.96h.068c1.622 0 2.645-2.142 2.822-3.86v-8.282c-.458 1.649-1.534 2.835-2.591 4-1.33 1.467-2.631 2.9-2.631 5.182Zm-4.95-15.88c0-2.906-2.154-5.334-6.476-5.334H.75a9.253 9.253 0 0 1 1.364 5.184V28.08a9.226 9.226 0 0 1-1.364 5.17h7.622a9.226 9.226 0 0 1-1.363-5.17v-2.988c5.277-3.506 11.222-7.926 11.222-13.478Zm-5.549.627c0 5.075-2.359 8.608-5.618 11.637V7.317h1.364c3.027 0 4.309 1.788 4.309 4.912l-.055.013Zm143.795 18.922h-.886l-.055-.436h2.304v.436h-.832v2.087h-.531v-2.087Zm3.981-.436-.696 1.691-.694-1.691h-.655v2.523h.519v-1.65l.653 1.636h.355l.654-1.636v1.65h.519v-2.523h-.655Z" fill="#000"/></g><defs><clipPath id="a"><path fill="#fff" d="M0 0h162v41H0z"/></clipPath></defs></svg>