<svg width="24" height="25" viewBox="0 0 24 25" fill="none" xmlns="http://www.w3.org/2000/svg">
<path d="M9.96449 10.3068V13.9625C9.51905 13.8412 9.05296 13.8247 8.60051 13.9141C8.14806 14.0035 7.72083 14.1967 7.35027 14.4793C6.97971 14.7619 6.67528 15.1268 6.45941 15.5472C6.24353 15.9674 6.12173 16.4324 6.10298 16.9078C6.07763 17.317 6.13739 17.7272 6.27826 18.1106C6.41912 18.4942 6.63783 18.8419 6.91966 19.131C7.2015 19.4199 7.53995 19.6432 7.91228 19.7857C8.28459 19.9285 8.68216 19.9872 9.07827 19.958C11.2768 19.958 12.0535 18.3628 12.0535 16.8666V2.38574H15.5533C16.1487 6.20966 17.9991 7.097 20.4793 7.50712V11.1708C20.4793 11.1708 17.5369 10.9548 15.6525 9.48722V16.7249C15.6505 19.9999 13.7706 23.6556 9.10466 23.6556C4.77461 23.6556 2.55939 19.8668 2.55939 16.6911C2.58701 15.7501 2.80744 14.8258 3.20616 13.9794C3.60487 13.1329 4.17284 12.3832 4.87256 11.78C5.57229 11.1767 6.38789 10.7335 7.26558 10.4796C8.1433 10.2256 9.06314 10.1667 9.96449 10.3068Z" fill="black"/>
</svg>
